<svg xmlns="http://www.w3.org/2000/svg" viewBox="0 0 160 160">
  <defs/>
  <path fill="#000000" d="M41.1 74.7c-5.1-.5-10.3-.9-15.5-1.3 2.4 5.4 3.8 12.1 7.8 16.7 3.8 4.5 10.3 7 15.8 8.8-4.1 0-8.2-.1-12.2-.1 2.4 6.2 4.3 12.5 6.7 18.7 1.1 2.6 2.9 4.9 5.8 5.3 3.7.4 7.5.3 11.2 0 3.2-.3 5.1-2.5 6.2-5.3 4.5-13.7 8.5-27.6 13.3-41.3 4.7 13.5 8.7 27.3 13.1 41 1.1 3 2.9 5.1 6.2 5.5 4.1.3 8.3.5 12.2-.3 3-.8 4.2-3.6 5.3-6.2 2.1-5.8 4.1-11.7 6.2-17.5-4.1.1-8 .3-12.1.3 5.7-2 12.1-4.3 15.9-9.2 3.6-4.5 5-10.9 7.5-16.2-5.3.3-10.5.8-15.6 1.3 8.3-3.4 18-6.2 23.9-13.4 5.5-6.8 8.3-16.6 11.4-24.6-9.6 3.4-19.2 6-29.1 8.5-2.9.7-5 2-6.2 4.9-4.9 14.3-9.6 28.8-14.5 43.1-4.1-13.9-8.5-27.7-12.8-41.7-.9-2.9-2-5.5-5.3-6-4.3-.3-8.9-.4-13.1.1-3.8.9-4.7 5.1-5.7 8.4-4.1 13-7.9 26.3-12.2 39.3-4.2-13.5-9.1-26.8-13.4-40.4-1.2-3.3-2.1-6.2-5.8-7.2C26 43.4 15.8 40.8 6 37.3c1.3 4.5 3 8.7 4.7 12.9 2.2 5.3 4.9 10.8 9.3 14.6 6.4 4.7 14 6.9 21.1 9.9z"/>
</svg>
